<svg width="24" height="24" viewBox="0 0 24 24" fill="none" xmlns="http://www.w3.org/2000/svg">
  <path d="M21.7428 12.2242C21.7428 11.4441 21.6776 10.8649 21.537 10.2654H12.2446V14.0642H17.6161C17.5099 14.9505 16.9307 16.2639 15.6888 17.1604L15.6719 17.2714L18.5602 19.4665L18.7837 19.4887C20.6191 17.7901 21.7428 15.2271 21.7428 12.2242Z" fill="#4285F4"/>
  <path d="M12.2445 21.9999C14.8891 21.9999 17.1047 21.0831 18.7836 19.4886L15.6888 17.1604C14.8483 17.7395 13.7246 18.1483 12.2445 18.1483C9.60041 18.1483 7.37461 16.4497 6.61477 14.0744L6.50938 14.0854L3.51169 16.3617L3.46704 16.4615C5.13572 19.7121 8.43907 21.9999 12.2445 21.9999Z" fill="#34A853"/>
  <path d="M6.61481 14.0744C6.41375 13.4749 6.29291 12.8347 6.29291 12.1741C6.29291 11.5134 6.41375 10.8733 6.60469 10.2738L6.59902 10.1557L3.5613 7.83667L3.46708 7.88663C2.8268 9.18029 2.45801 10.6399 2.45801 12.1741C2.45801 13.7083 2.8268 15.1678 3.46708 16.4615L6.61481 14.0744Z" fill="#FBBC05"/>
  <path d="M12.2445 6.19987C14.0697 6.19987 15.3218 7.02666 16.0309 7.68706L18.8077 5.01236C17.0939 3.42801 14.8891 2.34827 12.2445 2.34827C8.43907 2.34827 5.13572 4.63602 3.46704 7.88662L6.60465 10.2738C7.37461 7.89847 9.60041 6.19987 12.2445 6.19987Z" fill="#EB4335"/>
</svg> 