<svg width="24" height="24" viewBox="0 0 24 24" fill="none" xmlns="http://www.w3.org/2000/svg">
  <path d="M22.2819 9.8211C22.5502 9.14431 22.6652 8.41182 22.6181 7.67913C22.571 6.94644 22.3627 6.23308 22.0061 5.58648C21.6494 4.93989 21.1524 4.37492 20.5489 3.92843C19.9454 3.48194 19.2501 3.16361 18.5124 2.99331C17.7747 2.823 17.0125 2.80424 16.2677 2.93805C15.523 3.07186 14.812 3.35533 14.1873 3.77047C13.5625 4.18561 13.0384 4.72355 12.6491 5.35061C12.2598 5.97768 12.0137 6.67886 11.9266 7.40982C11.3395 7.43818 10.7635 7.5701 10.2275 7.79882C9.69142 8.02754 9.20501 8.34901 8.78901 8.74901C8.373 9.149 8.03352 9.62093 7.78601 10.1422C7.53851 10.6635 7.38723 11.2256 7.33901 11.8C7.29079 12.3744 7.34645 12.9525 7.50301 13.507C7.65957 14.0615 7.91407 14.5824 8.25301 15.044L4.94401 17.862C4.80901 17.974 4.70901 18.124 4.65701 18.293C4.60501 18.462 4.60401 18.642 4.65301 18.812C4.70201 18.981 4.80001 19.132 4.93301 19.246C5.06601 19.36 5.22801 19.431 5.40001 19.452L9.25901 19.912L9.71901 23.771C9.74001 23.943 9.81101 24.105 9.92501 24.238C10.039 24.371 10.19 24.469 10.359 24.521C10.529 24.572 10.709 24.574 10.879 24.525C11.049 24.476 11.201 24.379 11.318 24.244L14.136 20.935C14.598 21.274 15.119 21.528 15.673 21.685C16.228 21.841 16.806 21.897 17.38 21.849C17.955 21.801 18.517 21.649 19.038 21.402C19.559 21.154 20.031 20.815 20.431 20.399C20.831 19.983 21.152 19.496 21.381 18.96C21.61 18.424 21.742 17.848 21.77 17.262C21.798 16.675 21.723 16.088 21.547 15.529C21.371 14.969 21.098 14.447 20.741 13.989C21.418 13.721 22.0136 13.2959 22.4809 12.7505C22.9482 12.2051 23.2734 11.5557 23.429 10.856C23.5845 10.1563 23.5657 9.42931 23.374 8.73843C23.1823 8.04756 22.8234 7.41501 22.3289 6.89501L22.2819 9.8211ZM19.2809 18.524C18.8235 18.9815 18.2177 19.2756 17.5659 19.3626C16.914 19.4496 16.2518 19.3249 15.6759 19.006C15.1 18.6871 14.6414 18.1902 14.3659 17.5851C14.0905 16.98 14.013 16.2969 14.1449 15.6406C14.2769 14.9843 14.6116 14.3896 15.0991 13.9396C15.5867 13.4897 16.2033 13.2021 16.8672 13.1199C17.5311 13.0377 18.2069 13.1653 18.7899 13.4844C19.373 13.8035 19.8339 14.2947 20.1149 14.893C20.3302 15.3507 20.4387 15.8526 20.4321 16.3599C20.4255 16.8671 20.304 17.3659 20.0769 17.8173C19.8498 18.2687 19.5234 18.6601 19.1229 18.959L19.2809 18.524ZM20.2429 11.711C19.8749 12.083 19.4157 12.3481 18.9129 12.4799C18.4101 12.6116 17.8809 12.606 17.3809 12.4634C16.881 12.3209 16.427 12.0461 16.0657 11.6658C15.7044 11.2855 15.4478 10.8127 15.3199 10.2989C15.192 9.78507 15.1971 9.24666 15.3347 8.73543C15.4723 8.2242 15.7378 7.75661 16.1062 7.38336C16.4746 7.01011 16.9335 6.74414 17.4364 6.61244C17.9392 6.48074 18.4684 6.48633 18.9684 6.62884C19.4683 6.77134 19.9223 7.04621 20.2836 7.42651C20.6449 7.80682 20.9015 8.27957 21.0294 8.79341C21.1573 9.30724 21.1522 9.84565 21.0146 10.3569C20.877 10.8681 20.6115 11.3357 20.2429 11.709V11.711Z" fill="black"/>
</svg> 